<mxfile host="app.diagrams.net" agent="Mozilla/5.0 (Windows NT 10.0; Win64; x64) AppleWebKit/537.36 (KHTML, like Gecko) Chrome/127.0.0.0 Safari/537.36" version="24.7.6">
  <diagram name="第 1 页" id="BymiPVq2Z-AQMzZJHmyG">
    <mxGraphModel dx="2577" dy="2052" grid="1" gridSize="10" guides="1" tooltips="1" connect="1" arrows="1" fold="1" page="1" pageScale="1" pageWidth="827" pageHeight="1169" math="0" shadow="0">
      <root>
        <mxCell id="0" />
        <mxCell id="1" parent="0" />
        <mxCell id="tsgypxMjkq7cKY81S87D-16" style="rounded=0;orthogonalLoop=1;jettySize=auto;html=1;entryX=1;entryY=0;entryDx=0;entryDy=0;fontSize=20;fontStyle=1" edge="1" parent="1" source="tsgypxMjkq7cKY81S87D-1" target="tsgypxMjkq7cKY81S87D-4">
          <mxGeometry relative="1" as="geometry" />
        </mxCell>
        <mxCell id="tsgypxMjkq7cKY81S87D-1" value="J00072" style="ellipse;whiteSpace=wrap;html=1;fontSize=20;fontStyle=1" vertex="1" parent="1">
          <mxGeometry x="110" y="70" width="70" height="70" as="geometry" />
        </mxCell>
        <mxCell id="tsgypxMjkq7cKY81S87D-15" style="rounded=0;orthogonalLoop=1;jettySize=auto;html=1;fontSize=20;fontStyle=1" edge="1" parent="1" source="tsgypxMjkq7cKY81S87D-2" target="tsgypxMjkq7cKY81S87D-1">
          <mxGeometry relative="1" as="geometry" />
        </mxCell>
        <mxCell id="tsgypxMjkq7cKY81S87D-19" style="rounded=0;orthogonalLoop=1;jettySize=auto;html=1;entryX=0;entryY=0;entryDx=0;entryDy=0;fontSize=20;fontStyle=1" edge="1" parent="1" source="tsgypxMjkq7cKY81S87D-2" target="tsgypxMjkq7cKY81S87D-3">
          <mxGeometry relative="1" as="geometry" />
        </mxCell>
        <mxCell id="tsgypxMjkq7cKY81S87D-2" value="J00072" style="ellipse;whiteSpace=wrap;html=1;fontSize=20;fontStyle=1" vertex="1" parent="1">
          <mxGeometry x="220" width="70" height="70" as="geometry" />
        </mxCell>
        <mxCell id="tsgypxMjkq7cKY81S87D-20" style="rounded=0;orthogonalLoop=1;jettySize=auto;html=1;entryX=0.5;entryY=0;entryDx=0;entryDy=0;fontSize=20;fontStyle=1" edge="1" parent="1" source="tsgypxMjkq7cKY81S87D-3" target="tsgypxMjkq7cKY81S87D-6">
          <mxGeometry relative="1" as="geometry" />
        </mxCell>
        <mxCell id="tsgypxMjkq7cKY81S87D-3" value="J00072" style="ellipse;whiteSpace=wrap;html=1;fontSize=20;fontStyle=1" vertex="1" parent="1">
          <mxGeometry x="340" y="80" width="70" height="70" as="geometry" />
        </mxCell>
        <mxCell id="tsgypxMjkq7cKY81S87D-17" style="rounded=0;orthogonalLoop=1;jettySize=auto;html=1;entryX=1;entryY=0;entryDx=0;entryDy=0;fontSize=20;fontStyle=1" edge="1" parent="1" source="tsgypxMjkq7cKY81S87D-4" target="tsgypxMjkq7cKY81S87D-8">
          <mxGeometry relative="1" as="geometry" />
        </mxCell>
        <mxCell id="tsgypxMjkq7cKY81S87D-4" value="J00070" style="ellipse;whiteSpace=wrap;html=1;fontSize=20;fontStyle=1" vertex="1" parent="1">
          <mxGeometry x="40" y="150" width="70" height="70" as="geometry" />
        </mxCell>
        <mxCell id="tsgypxMjkq7cKY81S87D-5" value="J00069" style="ellipse;whiteSpace=wrap;html=1;fontSize=20;fontStyle=1" vertex="1" parent="1">
          <mxGeometry x="-130" y="360" width="70" height="70" as="geometry" />
        </mxCell>
        <mxCell id="tsgypxMjkq7cKY81S87D-21" style="rounded=0;orthogonalLoop=1;jettySize=auto;html=1;entryX=1;entryY=0;entryDx=0;entryDy=0;fontSize=20;fontStyle=1" edge="1" parent="1" source="tsgypxMjkq7cKY81S87D-6" target="tsgypxMjkq7cKY81S87D-7">
          <mxGeometry relative="1" as="geometry" />
        </mxCell>
        <mxCell id="tsgypxMjkq7cKY81S87D-6" value="J00071" style="ellipse;whiteSpace=wrap;html=1;fontSize=20;fontStyle=1" vertex="1" parent="1">
          <mxGeometry x="340" y="180" width="70" height="70" as="geometry" />
        </mxCell>
        <mxCell id="tsgypxMjkq7cKY81S87D-23" style="rounded=0;orthogonalLoop=1;jettySize=auto;html=1;entryX=0.5;entryY=0;entryDx=0;entryDy=0;fontSize=20;fontStyle=1" edge="1" parent="1" source="tsgypxMjkq7cKY81S87D-7" target="tsgypxMjkq7cKY81S87D-9">
          <mxGeometry relative="1" as="geometry" />
        </mxCell>
        <mxCell id="tsgypxMjkq7cKY81S87D-7" value="J00071" style="ellipse;whiteSpace=wrap;html=1;fontSize=20;fontStyle=1" vertex="1" parent="1">
          <mxGeometry x="230" y="260" width="70" height="70" as="geometry" />
        </mxCell>
        <mxCell id="tsgypxMjkq7cKY81S87D-18" style="rounded=0;orthogonalLoop=1;jettySize=auto;html=1;fontSize=20;fontStyle=1" edge="1" parent="1" source="tsgypxMjkq7cKY81S87D-8" target="tsgypxMjkq7cKY81S87D-5">
          <mxGeometry relative="1" as="geometry" />
        </mxCell>
        <mxCell id="tsgypxMjkq7cKY81S87D-8" value="J00070" style="ellipse;whiteSpace=wrap;html=1;fontSize=20;fontStyle=1" vertex="1" parent="1">
          <mxGeometry x="-40" y="260" width="70" height="70" as="geometry" />
        </mxCell>
        <mxCell id="tsgypxMjkq7cKY81S87D-47" style="edgeStyle=none;rounded=0;orthogonalLoop=1;jettySize=auto;html=1;entryX=0.5;entryY=0;entryDx=0;entryDy=0;" edge="1" parent="1" source="tsgypxMjkq7cKY81S87D-9" target="tsgypxMjkq7cKY81S87D-46">
          <mxGeometry relative="1" as="geometry" />
        </mxCell>
        <mxCell id="tsgypxMjkq7cKY81S87D-9" value="J00064" style="ellipse;whiteSpace=wrap;html=1;fontSize=20;fontStyle=1" vertex="1" parent="1">
          <mxGeometry x="230" y="360" width="70" height="70" as="geometry" />
        </mxCell>
        <mxCell id="tsgypxMjkq7cKY81S87D-24" style="rounded=0;orthogonalLoop=1;jettySize=auto;html=1;entryX=0.5;entryY=0;entryDx=0;entryDy=0;fontSize=20;fontStyle=1" edge="1" parent="1" source="tsgypxMjkq7cKY81S87D-10" target="tsgypxMjkq7cKY81S87D-11">
          <mxGeometry relative="1" as="geometry" />
        </mxCell>
        <mxCell id="tsgypxMjkq7cKY81S87D-10" value="J00071" style="ellipse;whiteSpace=wrap;html=1;fontSize=20;fontStyle=1" vertex="1" parent="1">
          <mxGeometry x="450" y="260" width="70" height="70" as="geometry" />
        </mxCell>
        <mxCell id="tsgypxMjkq7cKY81S87D-26" style="rounded=0;orthogonalLoop=1;jettySize=auto;html=1;fontSize=20;fontStyle=1" edge="1" parent="1" source="tsgypxMjkq7cKY81S87D-11" target="tsgypxMjkq7cKY81S87D-13">
          <mxGeometry relative="1" as="geometry" />
        </mxCell>
        <mxCell id="tsgypxMjkq7cKY81S87D-11" value="J00060" style="ellipse;whiteSpace=wrap;html=1;fontSize=20;fontStyle=1" vertex="1" parent="1">
          <mxGeometry x="450" y="360" width="70" height="70" as="geometry" />
        </mxCell>
        <mxCell id="tsgypxMjkq7cKY81S87D-50" style="edgeStyle=none;rounded=0;orthogonalLoop=1;jettySize=auto;html=1;" edge="1" parent="1" source="tsgypxMjkq7cKY81S87D-12">
          <mxGeometry relative="1" as="geometry">
            <mxPoint x="375" y="570" as="targetPoint" />
          </mxGeometry>
        </mxCell>
        <mxCell id="tsgypxMjkq7cKY81S87D-12" value="J00060" style="ellipse;whiteSpace=wrap;html=1;fontSize=20;fontStyle=1" vertex="1" parent="1">
          <mxGeometry x="340" y="440" width="70" height="70" as="geometry" />
        </mxCell>
        <mxCell id="tsgypxMjkq7cKY81S87D-27" style="edgeStyle=orthogonalEdgeStyle;rounded=0;orthogonalLoop=1;jettySize=auto;html=1;entryX=0.5;entryY=0;entryDx=0;entryDy=0;fontSize=20;fontStyle=1" edge="1" parent="1" source="tsgypxMjkq7cKY81S87D-13" target="tsgypxMjkq7cKY81S87D-14">
          <mxGeometry relative="1" as="geometry" />
        </mxCell>
        <mxCell id="tsgypxMjkq7cKY81S87D-13" value="J00060" style="ellipse;whiteSpace=wrap;html=1;fontSize=20;fontStyle=1" vertex="1" parent="1">
          <mxGeometry x="530" y="440" width="70" height="70" as="geometry" />
        </mxCell>
        <mxCell id="tsgypxMjkq7cKY81S87D-53" style="edgeStyle=none;rounded=0;orthogonalLoop=1;jettySize=auto;html=1;" edge="1" parent="1" source="tsgypxMjkq7cKY81S87D-14" target="tsgypxMjkq7cKY81S87D-51">
          <mxGeometry relative="1" as="geometry" />
        </mxCell>
        <mxCell id="tsgypxMjkq7cKY81S87D-14" value="J00057" style="ellipse;whiteSpace=wrap;html=1;fontSize=20;fontStyle=1" vertex="1" parent="1">
          <mxGeometry x="530" y="550" width="70" height="70" as="geometry" />
        </mxCell>
        <mxCell id="tsgypxMjkq7cKY81S87D-22" style="rounded=0;orthogonalLoop=1;jettySize=auto;html=1;entryX=0.254;entryY=0.017;entryDx=0;entryDy=0;entryPerimeter=0;fontSize=20;fontStyle=1" edge="1" parent="1" source="tsgypxMjkq7cKY81S87D-6" target="tsgypxMjkq7cKY81S87D-10">
          <mxGeometry relative="1" as="geometry" />
        </mxCell>
        <mxCell id="tsgypxMjkq7cKY81S87D-25" style="rounded=0;orthogonalLoop=1;jettySize=auto;html=1;entryX=1;entryY=0.286;entryDx=0;entryDy=0;entryPerimeter=0;fontSize=20;fontStyle=1" edge="1" parent="1" source="tsgypxMjkq7cKY81S87D-11" target="tsgypxMjkq7cKY81S87D-12">
          <mxGeometry relative="1" as="geometry" />
        </mxCell>
        <mxCell id="tsgypxMjkq7cKY81S87D-28" value="&lt;font style=&quot;font-size: 20px;&quot;&gt;c00065&lt;/font&gt;" style="rounded=0;whiteSpace=wrap;html=1;fontStyle=1" vertex="1" parent="1">
          <mxGeometry x="-350" y="-60" width="190" height="100" as="geometry" />
        </mxCell>
        <mxCell id="tsgypxMjkq7cKY81S87D-29" value="&lt;span style=&quot;font-size: 20px;&quot;&gt;FromNode&lt;/span&gt;" style="rounded=0;whiteSpace=wrap;html=1;fontStyle=1" vertex="1" parent="1">
          <mxGeometry x="195" y="-80" width="120" height="60" as="geometry" />
        </mxCell>
        <mxCell id="tsgypxMjkq7cKY81S87D-30" value="&lt;span style=&quot;font-size: 20px;&quot;&gt;ToNode&lt;/span&gt;" style="rounded=0;whiteSpace=wrap;html=1;fontStyle=1" vertex="1" parent="1">
          <mxGeometry x="440" y="75" width="120" height="60" as="geometry" />
        </mxCell>
        <mxCell id="tsgypxMjkq7cKY81S87D-31" value="&lt;span style=&quot;font-size: 20px;&quot;&gt;ToNode&lt;/span&gt;" style="rounded=0;whiteSpace=wrap;html=1;fontStyle=1" vertex="1" parent="1">
          <mxGeometry x="-55" y="70" width="120" height="60" as="geometry" />
        </mxCell>
        <mxCell id="tsgypxMjkq7cKY81S87D-32" value="&lt;span style=&quot;font-size: 20px;&quot;&gt;FromNode&lt;/span&gt;" style="rounded=0;whiteSpace=wrap;html=1;fontStyle=1" vertex="1" parent="1">
          <mxGeometry x="-100" y="150" width="120" height="60" as="geometry" />
        </mxCell>
        <mxCell id="tsgypxMjkq7cKY81S87D-33" value="&lt;span style=&quot;font-size: 20px;&quot;&gt;FromNode&lt;/span&gt;" style="rounded=0;whiteSpace=wrap;html=1;fontStyle=1" vertex="1" parent="1">
          <mxGeometry x="440" y="170" width="120" height="60" as="geometry" />
        </mxCell>
        <mxCell id="tsgypxMjkq7cKY81S87D-34" value="&lt;span style=&quot;font-size: 20px;&quot;&gt;ToNode&lt;/span&gt;" style="rounded=0;whiteSpace=wrap;html=1;fontStyle=1" vertex="1" parent="1">
          <mxGeometry x="-180" y="260" width="120" height="60" as="geometry" />
        </mxCell>
        <mxCell id="tsgypxMjkq7cKY81S87D-35" value="&lt;span style=&quot;font-size: 20px;&quot;&gt;ToNode&lt;/span&gt;" style="rounded=0;whiteSpace=wrap;html=1;fontStyle=1" vertex="1" parent="1">
          <mxGeometry x="85" y="260" width="120" height="60" as="geometry" />
        </mxCell>
        <mxCell id="tsgypxMjkq7cKY81S87D-36" value="&lt;span style=&quot;font-size: 20px;&quot;&gt;ToNode&lt;/span&gt;" style="rounded=0;whiteSpace=wrap;html=1;fontStyle=1" vertex="1" parent="1">
          <mxGeometry x="540" y="270" width="120" height="60" as="geometry" />
        </mxCell>
        <mxCell id="tsgypxMjkq7cKY81S87D-41" value="&lt;span style=&quot;color: rgb(0, 0, 0); font-family: Helvetica; font-size: 24px; font-style: normal; font-variant-ligatures: normal; font-variant-caps: normal; font-weight: 400; letter-spacing: normal; orphans: 2; text-align: center; text-indent: 0px; text-transform: none; widows: 2; word-spacing: 0px; -webkit-text-stroke-width: 0px; white-space: normal; background-color: rgb(251, 251, 251); text-decoration-thickness: initial; text-decoration-style: initial; text-decoration-color: initial; display: inline !important; float: none;&quot;&gt;结束了，因为在ToNode里面找不到这个了，这个时候结束查找&lt;/span&gt;" style="text;whiteSpace=wrap;html=1;" vertex="1" parent="1">
          <mxGeometry x="-410" y="520" width="360" height="90" as="geometry" />
        </mxCell>
        <mxCell id="tsgypxMjkq7cKY81S87D-42" style="edgeStyle=none;rounded=0;orthogonalLoop=1;jettySize=auto;html=1;entryX=0.459;entryY=0.01;entryDx=0;entryDy=0;entryPerimeter=0;" edge="1" parent="1" source="tsgypxMjkq7cKY81S87D-5" target="tsgypxMjkq7cKY81S87D-41">
          <mxGeometry relative="1" as="geometry" />
        </mxCell>
        <mxCell id="tsgypxMjkq7cKY81S87D-43" value="&lt;span style=&quot;font-size: 20px;&quot;&gt;FromNode&lt;/span&gt;" style="rounded=0;whiteSpace=wrap;html=1;fontStyle=1" vertex="1" parent="1">
          <mxGeometry x="-270" y="360" width="120" height="60" as="geometry" />
        </mxCell>
        <mxCell id="tsgypxMjkq7cKY81S87D-44" value="&lt;span style=&quot;font-size: 20px;&quot;&gt;FromNode&lt;/span&gt;" style="rounded=0;whiteSpace=wrap;html=1;fontStyle=1" vertex="1" parent="1">
          <mxGeometry x="75" y="365" width="120" height="60" as="geometry" />
        </mxCell>
        <mxCell id="tsgypxMjkq7cKY81S87D-45" value="&lt;span style=&quot;font-size: 20px;&quot;&gt;FromNode&lt;/span&gt;" style="rounded=0;whiteSpace=wrap;html=1;fontStyle=1" vertex="1" parent="1">
          <mxGeometry x="540" y="365" width="120" height="60" as="geometry" />
        </mxCell>
        <mxCell id="tsgypxMjkq7cKY81S87D-46" value="&lt;span style=&quot;color: rgb(0, 0, 0); font-family: Helvetica; font-size: 24px; font-style: normal; font-variant-ligatures: normal; font-variant-caps: normal; font-weight: 400; letter-spacing: normal; orphans: 2; text-align: center; text-indent: 0px; text-transform: none; widows: 2; word-spacing: 0px; -webkit-text-stroke-width: 0px; white-space: normal; background-color: rgb(251, 251, 251); text-decoration-thickness: initial; text-decoration-style: initial; text-decoration-color: initial; display: inline !important; float: none;&quot;&gt;结束了，因为在ToNode里面找不到了，这个时候结束查找&lt;/span&gt;" style="text;whiteSpace=wrap;html=1;" vertex="1" parent="1">
          <mxGeometry x="-100" y="640" width="255" height="100" as="geometry" />
        </mxCell>
        <mxCell id="tsgypxMjkq7cKY81S87D-52" style="edgeStyle=none;rounded=0;orthogonalLoop=1;jettySize=auto;html=1;" edge="1" parent="1" source="tsgypxMjkq7cKY81S87D-48" target="tsgypxMjkq7cKY81S87D-51">
          <mxGeometry relative="1" as="geometry" />
        </mxCell>
        <mxCell id="tsgypxMjkq7cKY81S87D-48" value="J00061" style="ellipse;whiteSpace=wrap;html=1;fontSize=20;fontStyle=1" vertex="1" parent="1">
          <mxGeometry x="340" y="560" width="70" height="70" as="geometry" />
        </mxCell>
        <mxCell id="tsgypxMjkq7cKY81S87D-49" style="edgeStyle=none;rounded=0;orthogonalLoop=1;jettySize=auto;html=1;entryX=0.5;entryY=0;entryDx=0;entryDy=0;" edge="1" parent="1" source="tsgypxMjkq7cKY81S87D-48" target="tsgypxMjkq7cKY81S87D-48">
          <mxGeometry relative="1" as="geometry" />
        </mxCell>
        <mxCell id="tsgypxMjkq7cKY81S87D-51" value="&lt;span style=&quot;color: rgb(0, 0, 0); font-family: Helvetica; font-size: 24px; font-style: normal; font-variant-ligatures: normal; font-variant-caps: normal; font-weight: 400; letter-spacing: normal; orphans: 2; text-align: center; text-indent: 0px; text-transform: none; widows: 2; word-spacing: 0px; -webkit-text-stroke-width: 0px; white-space: normal; background-color: rgb(251, 251, 251); text-decoration-thickness: initial; text-decoration-style: initial; text-decoration-color: initial; display: inline !important; float: none;&quot;&gt;结束了，因为在ToNode里面找不到了，这个时候结束查找&lt;/span&gt;" style="text;whiteSpace=wrap;html=1;" vertex="1" parent="1">
          <mxGeometry x="357.5" y="740" width="255" height="100" as="geometry" />
        </mxCell>
        <mxCell id="tsgypxMjkq7cKY81S87D-54" value="&lt;span style=&quot;font-size: 20px;&quot;&gt;ToNode&lt;/span&gt;" style="rounded=0;whiteSpace=wrap;html=1;fontStyle=1" vertex="1" parent="1">
          <mxGeometry x="620" y="445" width="120" height="60" as="geometry" />
        </mxCell>
        <mxCell id="tsgypxMjkq7cKY81S87D-55" value="&lt;span style=&quot;font-size: 20px;&quot;&gt;ToNode&lt;/span&gt;" style="rounded=0;whiteSpace=wrap;html=1;fontStyle=1" vertex="1" parent="1">
          <mxGeometry x="240" y="450" width="90" height="50" as="geometry" />
        </mxCell>
        <mxCell id="tsgypxMjkq7cKY81S87D-56" value="&lt;span style=&quot;font-size: 20px;&quot;&gt;FromNode&lt;/span&gt;" style="rounded=0;whiteSpace=wrap;html=1;fontStyle=1" vertex="1" parent="1">
          <mxGeometry x="612.5" y="565" width="120" height="60" as="geometry" />
        </mxCell>
        <mxCell id="tsgypxMjkq7cKY81S87D-57" value="&lt;span style=&quot;font-size: 20px;&quot;&gt;FromNode&lt;/span&gt;" style="rounded=0;whiteSpace=wrap;html=1;fontStyle=1" vertex="1" parent="1">
          <mxGeometry x="230" y="630" width="120" height="60" as="geometry" />
        </mxCell>
      </root>
    </mxGraphModel>
  </diagram>
</mxfile>
